<mxfile host="app.diagrams.net" modified="2022-07-04T07:48:10.171Z" agent="5.0 (Macintosh; Intel Mac OS X 10_15_7) AppleWebKit/537.36 (KHTML, like Gecko) Chrome/103.0.0.0 Safari/537.36" etag="97WVVkRI7bDL3Ba35jHU" version="20.0.4" type="github">
  <diagram id="5G-i43bFnJrgy0a9fhSI" name="Page-1">
    <mxGraphModel dx="937" dy="466" grid="1" gridSize="10" guides="1" tooltips="1" connect="1" arrows="1" fold="1" page="1" pageScale="1" pageWidth="850" pageHeight="1100" math="0" shadow="0">
      <root>
        <mxCell id="0" />
        <mxCell id="1" parent="0" />
        <mxCell id="FRvTKEYPMM_RWytjzJ7n-13" value="Taps" style="swimlane;fontStyle=0;childLayout=stackLayout;horizontal=1;startSize=30;horizontalStack=0;resizeParent=1;resizeParentMax=0;resizeLast=0;collapsible=1;marginBottom=0;fillColor=#d5e8d4;strokeColor=#82b366;" parent="1" vertex="1">
          <mxGeometry x="15" y="420" width="140" height="210" as="geometry" />
        </mxCell>
        <mxCell id="FRvTKEYPMM_RWytjzJ7n-14" value="Factory and Machine mining(+2.5%)" style="text;strokeColor=#23445d;fillColor=#bac8d3;align=left;verticalAlign=middle;spacingLeft=4;spacingRight=4;overflow=hidden;points=[[0,0.5],[1,0.5]];portConstraint=eastwest;rotatable=0;whiteSpace=wrap;" parent="FRvTKEYPMM_RWytjzJ7n-13" vertex="1">
          <mxGeometry y="30" width="140" height="30" as="geometry" />
        </mxCell>
        <mxCell id="FRvTKEYPMM_RWytjzJ7n-16" value="Mission(+5%)" style="text;strokeColor=#23445d;fillColor=#bac8d3;align=left;verticalAlign=middle;spacingLeft=4;spacingRight=4;overflow=hidden;points=[[0,0.5],[1,0.5]];portConstraint=eastwest;rotatable=0;" parent="FRvTKEYPMM_RWytjzJ7n-13" vertex="1">
          <mxGeometry y="60" width="140" height="30" as="geometry" />
        </mxCell>
        <mxCell id="FRvTKEYPMM_RWytjzJ7n-15" value="Quest(+1%)" style="text;strokeColor=#23445d;fillColor=#bac8d3;align=left;verticalAlign=middle;spacingLeft=4;spacingRight=4;overflow=hidden;points=[[0,0.5],[1,0.5]];portConstraint=eastwest;rotatable=0;" parent="FRvTKEYPMM_RWytjzJ7n-13" vertex="1">
          <mxGeometry y="90" width="140" height="30" as="geometry" />
        </mxCell>
        <mxCell id="FRvTKEYPMM_RWytjzJ7n-61" value="Disaster(+1%)" style="text;strokeColor=#23445d;fillColor=#bac8d3;align=left;verticalAlign=middle;spacingLeft=4;spacingRight=4;overflow=hidden;points=[[0,0.5],[1,0.5]];portConstraint=eastwest;rotatable=0;" parent="FRvTKEYPMM_RWytjzJ7n-13" vertex="1">
          <mxGeometry y="120" width="140" height="30" as="geometry" />
        </mxCell>
        <mxCell id="9gXcVgjod_6XNoh5ux4A-3" value="Stake(+6%)" style="text;strokeColor=#23445d;fillColor=#bac8d3;align=left;verticalAlign=middle;spacingLeft=4;spacingRight=4;overflow=hidden;points=[[0,0.5],[1,0.5]];portConstraint=eastwest;rotatable=0;" parent="FRvTKEYPMM_RWytjzJ7n-13" vertex="1">
          <mxGeometry y="150" width="140" height="30" as="geometry" />
        </mxCell>
        <mxCell id="9gXcVgjod_6XNoh5ux4A-4" value="YF(+5%)" style="text;strokeColor=#23445d;fillColor=#bac8d3;align=left;verticalAlign=middle;spacingLeft=4;spacingRight=4;overflow=hidden;points=[[0,0.5],[1,0.5]];portConstraint=eastwest;rotatable=0;" parent="FRvTKEYPMM_RWytjzJ7n-13" vertex="1">
          <mxGeometry y="180" width="140" height="30" as="geometry" />
        </mxCell>
        <mxCell id="FRvTKEYPMM_RWytjzJ7n-44" style="rounded=0;orthogonalLoop=1;jettySize=auto;html=1;startArrow=none;startFill=0;" parent="1" source="FRvTKEYPMM_RWytjzJ7n-17" target="FRvTKEYPMM_RWytjzJ7n-25" edge="1">
          <mxGeometry relative="1" as="geometry" />
        </mxCell>
        <mxCell id="FRvTKEYPMM_RWytjzJ7n-45" style="edgeStyle=none;rounded=0;orthogonalLoop=1;jettySize=auto;html=1;exitX=0.5;exitY=0;exitDx=0;exitDy=0;startArrow=none;startFill=0;" parent="1" source="FRvTKEYPMM_RWytjzJ7n-17" target="FRvTKEYPMM_RWytjzJ7n-21" edge="1">
          <mxGeometry relative="1" as="geometry" />
        </mxCell>
        <mxCell id="FRvTKEYPMM_RWytjzJ7n-17" value="Inventory" style="swimlane;fontStyle=0;childLayout=stackLayout;horizontal=1;startSize=30;horizontalStack=0;resizeParent=1;resizeParentMax=0;resizeLast=0;collapsible=1;marginBottom=0;fillColor=#d0cee2;strokeColor=#56517e;" parent="1" vertex="1">
          <mxGeometry x="295" y="420" width="140" height="90" as="geometry" />
        </mxCell>
        <mxCell id="FRvTKEYPMM_RWytjzJ7n-18" value="Inventory" style="text;strokeColor=#23445d;fillColor=#bac8d3;align=left;verticalAlign=middle;spacingLeft=4;spacingRight=4;overflow=hidden;points=[[0,0.5],[1,0.5]];portConstraint=eastwest;rotatable=0;" parent="FRvTKEYPMM_RWytjzJ7n-17" vertex="1">
          <mxGeometry y="30" width="140" height="30" as="geometry" />
        </mxCell>
        <mxCell id="FRvTKEYPMM_RWytjzJ7n-19" value="Storage" style="text;strokeColor=#23445d;fillColor=#bac8d3;align=left;verticalAlign=middle;spacingLeft=4;spacingRight=4;overflow=hidden;points=[[0,0.5],[1,0.5]];portConstraint=eastwest;rotatable=0;" parent="FRvTKEYPMM_RWytjzJ7n-17" vertex="1">
          <mxGeometry y="60" width="140" height="30" as="geometry" />
        </mxCell>
        <mxCell id="FRvTKEYPMM_RWytjzJ7n-42" style="rounded=0;orthogonalLoop=1;jettySize=auto;html=1;exitX=0;exitY=0.5;exitDx=0;exitDy=0;startArrow=none;startFill=0;" parent="1" source="FRvTKEYPMM_RWytjzJ7n-22" target="FRvTKEYPMM_RWytjzJ7n-13" edge="1">
          <mxGeometry relative="1" as="geometry" />
        </mxCell>
        <mxCell id="FRvTKEYPMM_RWytjzJ7n-21" value="Sinks" style="swimlane;fontStyle=0;childLayout=stackLayout;horizontal=1;startSize=30;horizontalStack=0;resizeParent=1;resizeParentMax=0;resizeLast=0;collapsible=1;marginBottom=0;fillColor=#f8cecc;strokeColor=#b85450;" parent="1" vertex="1">
          <mxGeometry x="495" y="100" width="170" height="270" as="geometry" />
        </mxCell>
        <mxCell id="FRvTKEYPMM_RWytjzJ7n-22" value="Energy(-7.5%)" style="text;align=left;verticalAlign=middle;spacingLeft=4;spacingRight=4;overflow=hidden;points=[[0,0.5],[1,0.5]];portConstraint=eastwest;rotatable=0;fillColor=#bac8d3;strokeColor=#23445d;" parent="FRvTKEYPMM_RWytjzJ7n-21" vertex="1">
          <mxGeometry y="30" width="170" height="30" as="geometry" />
        </mxCell>
        <mxCell id="FRvTKEYPMM_RWytjzJ7n-23" value="Repair(-7.5%)" style="text;align=left;verticalAlign=middle;spacingLeft=4;spacingRight=4;overflow=hidden;points=[[0,0.5],[1,0.5]];portConstraint=eastwest;rotatable=0;fillColor=#bac8d3;strokeColor=#23445d;" parent="FRvTKEYPMM_RWytjzJ7n-21" vertex="1">
          <mxGeometry y="60" width="170" height="30" as="geometry" />
        </mxCell>
        <mxCell id="FRvTKEYPMM_RWytjzJ7n-70" value="Upgrade(-10%)" style="text;align=left;verticalAlign=middle;spacingLeft=4;spacingRight=4;overflow=hidden;points=[[0,0.5],[1,0.5]];portConstraint=eastwest;rotatable=0;fillColor=#bac8d3;strokeColor=#23445d;" parent="FRvTKEYPMM_RWytjzJ7n-21" vertex="1">
          <mxGeometry y="90" width="170" height="30" as="geometry" />
        </mxCell>
        <mxCell id="FRvTKEYPMM_RWytjzJ7n-71" value="Awaken(-20%)" style="text;align=left;verticalAlign=middle;spacingLeft=4;spacingRight=4;overflow=hidden;points=[[0,0.5],[1,0.5]];portConstraint=eastwest;rotatable=0;fillColor=#bac8d3;strokeColor=#23445d;" parent="FRvTKEYPMM_RWytjzJ7n-21" vertex="1">
          <mxGeometry y="120" width="170" height="30" as="geometry" />
        </mxCell>
        <mxCell id="FRvTKEYPMM_RWytjzJ7n-59" value="Building(-30%)" style="text;align=left;verticalAlign=middle;spacingLeft=4;spacingRight=4;overflow=hidden;points=[[0,0.5],[1,0.5]];portConstraint=eastwest;rotatable=0;fillColor=#bac8d3;strokeColor=#23445d;" parent="FRvTKEYPMM_RWytjzJ7n-21" vertex="1">
          <mxGeometry y="150" width="170" height="30" as="geometry" />
        </mxCell>
        <mxCell id="FRvTKEYPMM_RWytjzJ7n-51" value="Disaster(-5% ~ +5%)" style="text;align=left;verticalAlign=middle;spacingLeft=4;spacingRight=4;overflow=hidden;points=[[0,0.5],[1,0.5]];portConstraint=eastwest;rotatable=0;fillColor=#bac8d3;strokeColor=#23445d;" parent="FRvTKEYPMM_RWytjzJ7n-21" vertex="1">
          <mxGeometry y="180" width="170" height="30" as="geometry" />
        </mxCell>
        <mxCell id="FRvTKEYPMM_RWytjzJ7n-72" value="Employment &amp; Request(-5%)" style="text;align=left;verticalAlign=middle;spacingLeft=4;spacingRight=4;overflow=hidden;points=[[0,0.5],[1,0.5]];portConstraint=eastwest;rotatable=0;fontStyle=0;fillColor=#bac8d3;strokeColor=#23445d;" parent="FRvTKEYPMM_RWytjzJ7n-21" vertex="1">
          <mxGeometry y="210" width="170" height="30" as="geometry" />
        </mxCell>
        <mxCell id="FRvTKEYPMM_RWytjzJ7n-75" value="Residence(-5%)" style="text;align=left;verticalAlign=middle;spacingLeft=4;spacingRight=4;overflow=hidden;points=[[0,0.5],[1,0.5]];portConstraint=eastwest;rotatable=0;fontStyle=0;fillColor=#bac8d3;strokeColor=#23445d;" parent="FRvTKEYPMM_RWytjzJ7n-21" vertex="1">
          <mxGeometry y="240" width="170" height="30" as="geometry" />
        </mxCell>
        <mxCell id="FRvTKEYPMM_RWytjzJ7n-43" style="rounded=0;orthogonalLoop=1;jettySize=auto;html=1;startArrow=none;startFill=0;" parent="1" source="FRvTKEYPMM_RWytjzJ7n-25" target="FRvTKEYPMM_RWytjzJ7n-13" edge="1">
          <mxGeometry relative="1" as="geometry" />
        </mxCell>
        <mxCell id="FRvTKEYPMM_RWytjzJ7n-25" value="Converter" style="swimlane;fontStyle=0;childLayout=stackLayout;horizontal=1;startSize=30;horizontalStack=0;resizeParent=1;resizeParentMax=0;resizeLast=0;collapsible=1;marginBottom=0;fillColor=#fad7ac;strokeColor=#b46504;" parent="1" vertex="1">
          <mxGeometry x="495" y="640" width="140" height="90" as="geometry" />
        </mxCell>
        <mxCell id="FRvTKEYPMM_RWytjzJ7n-26" value="Building" style="text;strokeColor=#23445d;fillColor=#bac8d3;align=left;verticalAlign=middle;spacingLeft=4;spacingRight=4;overflow=hidden;points=[[0,0.5],[1,0.5]];portConstraint=eastwest;rotatable=0;" parent="FRvTKEYPMM_RWytjzJ7n-25" vertex="1">
          <mxGeometry y="30" width="140" height="30" as="geometry" />
        </mxCell>
        <mxCell id="FRvTKEYPMM_RWytjzJ7n-67" value="Factory and Machine crafting" style="text;strokeColor=#23445d;fillColor=#bac8d3;align=left;verticalAlign=middle;spacingLeft=4;spacingRight=4;overflow=hidden;points=[[0,0.5],[1,0.5]];portConstraint=eastwest;rotatable=0;whiteSpace=wrap;" parent="FRvTKEYPMM_RWytjzJ7n-25" vertex="1">
          <mxGeometry y="60" width="140" height="30" as="geometry" />
        </mxCell>
        <mxCell id="FRvTKEYPMM_RWytjzJ7n-29" value="Trader" style="swimlane;fontStyle=0;childLayout=stackLayout;horizontal=1;startSize=30;horizontalStack=0;resizeParent=1;resizeParentMax=0;resizeLast=0;collapsible=1;marginBottom=0;fillColor=#b1ddf0;strokeColor=#10739e;" parent="1" vertex="1">
          <mxGeometry x="695" y="420" width="140" height="150" as="geometry" />
        </mxCell>
        <mxCell id="FRvTKEYPMM_RWytjzJ7n-30" value="Exchange" style="text;strokeColor=#23445d;fillColor=#bac8d3;align=left;verticalAlign=middle;spacingLeft=4;spacingRight=4;overflow=hidden;points=[[0,0.5],[1,0.5]];portConstraint=eastwest;rotatable=0;" parent="FRvTKEYPMM_RWytjzJ7n-29" vertex="1">
          <mxGeometry y="30" width="140" height="30" as="geometry" />
        </mxCell>
        <mxCell id="FRvTKEYPMM_RWytjzJ7n-31" value="Store" style="text;strokeColor=#23445d;fillColor=#bac8d3;align=left;verticalAlign=middle;spacingLeft=4;spacingRight=4;overflow=hidden;points=[[0,0.5],[1,0.5]];portConstraint=eastwest;rotatable=0;" parent="FRvTKEYPMM_RWytjzJ7n-29" vertex="1">
          <mxGeometry y="60" width="140" height="30" as="geometry" />
        </mxCell>
        <mxCell id="FRvTKEYPMM_RWytjzJ7n-52" value="Marketplace" style="text;strokeColor=#23445d;fillColor=#bac8d3;align=left;verticalAlign=middle;spacingLeft=4;spacingRight=4;overflow=hidden;points=[[0,0.5],[1,0.5]];portConstraint=eastwest;rotatable=0;" parent="FRvTKEYPMM_RWytjzJ7n-29" vertex="1">
          <mxGeometry y="90" width="140" height="30" as="geometry" />
        </mxCell>
        <mxCell id="9gXcVgjod_6XNoh5ux4A-1" value="Land Sale" style="text;strokeColor=#23445d;fillColor=#bac8d3;align=left;verticalAlign=middle;spacingLeft=4;spacingRight=4;overflow=hidden;points=[[0,0.5],[1,0.5]];portConstraint=eastwest;rotatable=0;" parent="FRvTKEYPMM_RWytjzJ7n-29" vertex="1">
          <mxGeometry y="120" width="140" height="30" as="geometry" />
        </mxCell>
        <mxCell id="FRvTKEYPMM_RWytjzJ7n-33" style="edgeStyle=orthogonalEdgeStyle;curved=1;rounded=0;orthogonalLoop=1;jettySize=auto;html=1;exitX=1;exitY=0.5;exitDx=0;exitDy=0;entryX=0;entryY=0.5;entryDx=0;entryDy=0;startArrow=none;startFill=0;" parent="1" source="FRvTKEYPMM_RWytjzJ7n-18" target="FRvTKEYPMM_RWytjzJ7n-30" edge="1">
          <mxGeometry relative="1" as="geometry" />
        </mxCell>
        <mxCell id="FRvTKEYPMM_RWytjzJ7n-34" style="edgeStyle=orthogonalEdgeStyle;curved=1;rounded=0;orthogonalLoop=1;jettySize=auto;html=1;exitX=0;exitY=0.5;exitDx=0;exitDy=0;entryX=1;entryY=0.5;entryDx=0;entryDy=0;startArrow=none;startFill=0;" parent="1" source="FRvTKEYPMM_RWytjzJ7n-31" target="FRvTKEYPMM_RWytjzJ7n-19" edge="1">
          <mxGeometry relative="1" as="geometry" />
        </mxCell>
        <mxCell id="FRvTKEYPMM_RWytjzJ7n-54" value="Relay(Taps)" style="swimlane;fontStyle=0;childLayout=stackLayout;horizontal=1;startSize=30;horizontalStack=0;resizeParent=1;resizeParentMax=0;resizeLast=0;collapsible=1;marginBottom=0;fillColor=#d5e8d4;strokeColor=#82b366;" parent="1" vertex="1">
          <mxGeometry x="100" y="280" width="140" height="120" as="geometry" />
        </mxCell>
        <mxCell id="FRvTKEYPMM_RWytjzJ7n-55" value="Carbon" style="text;strokeColor=#666666;fillColor=#f5f5f5;align=left;verticalAlign=middle;spacingLeft=4;spacingRight=4;overflow=hidden;points=[[0,0.5],[1,0.5]];portConstraint=eastwest;rotatable=0;fontColor=#333333;" parent="FRvTKEYPMM_RWytjzJ7n-54" vertex="1">
          <mxGeometry y="30" width="140" height="30" as="geometry" />
        </mxCell>
        <mxCell id="FRvTKEYPMM_RWytjzJ7n-56" value="Quota Mission" style="text;strokeColor=#666666;fillColor=#f5f5f5;align=left;verticalAlign=middle;spacingLeft=4;spacingRight=4;overflow=hidden;points=[[0,0.5],[1,0.5]];portConstraint=eastwest;rotatable=0;fontColor=#333333;" parent="FRvTKEYPMM_RWytjzJ7n-54" vertex="1">
          <mxGeometry y="60" width="140" height="30" as="geometry" />
        </mxCell>
        <mxCell id="FRvTKEYPMM_RWytjzJ7n-64" value="Pool sharing" style="text;strokeColor=#666666;fillColor=#f5f5f5;align=left;verticalAlign=middle;spacingLeft=4;spacingRight=4;overflow=hidden;points=[[0,0.5],[1,0.5]];portConstraint=eastwest;rotatable=0;fontColor=#333333;" parent="FRvTKEYPMM_RWytjzJ7n-54" vertex="1">
          <mxGeometry y="90" width="140" height="30" as="geometry" />
        </mxCell>
        <mxCell id="FRvTKEYPMM_RWytjzJ7n-66" value="&lt;font style=&quot;font-size: 33px;&quot;&gt;Taps and Sinks Design&lt;br&gt;(2 Year)&lt;br&gt;&lt;/font&gt;" style="text;html=1;strokeColor=none;fillColor=none;align=center;verticalAlign=middle;whiteSpace=wrap;rounded=0;" parent="1" vertex="1">
          <mxGeometry x="10" width="440" height="80" as="geometry" />
        </mxCell>
        <mxCell id="9gXcVgjod_6XNoh5ux4A-5" style="edgeStyle=none;rounded=0;orthogonalLoop=1;jettySize=auto;html=1;exitX=1;exitY=0.5;exitDx=0;exitDy=0;fontSize=33;startArrow=none;startFill=0;" parent="1" source="FRvTKEYPMM_RWytjzJ7n-16" target="FRvTKEYPMM_RWytjzJ7n-19" edge="1">
          <mxGeometry relative="1" as="geometry" />
        </mxCell>
        <mxCell id="9gXcVgjod_6XNoh5ux4A-6" value="Taps" style="swimlane;fontStyle=0;childLayout=stackLayout;horizontal=1;startSize=30;horizontalStack=0;resizeParent=1;resizeParentMax=0;resizeLast=0;collapsible=1;marginBottom=0;fillColor=#d5e8d4;strokeColor=#82b366;" parent="1" vertex="1">
          <mxGeometry x="15" y="670" width="140" height="60" as="geometry" />
        </mxCell>
        <mxCell id="9gXcVgjod_6XNoh5ux4A-7" value="liquidity 15%" style="text;strokeColor=#23445d;fillColor=#bac8d3;align=left;verticalAlign=middle;spacingLeft=4;spacingRight=4;overflow=hidden;points=[[0,0.5],[1,0.5]];portConstraint=eastwest;rotatable=0;whiteSpace=wrap;" parent="9gXcVgjod_6XNoh5ux4A-6" vertex="1">
          <mxGeometry y="30" width="140" height="30" as="geometry" />
        </mxCell>
      </root>
    </mxGraphModel>
  </diagram>
</mxfile>
